<?xml version="1.0" encoding="UTF-8" standalone="no"?>
<svg
   width="100"
   height="100"
   viewBox="0 0 26.458333 26.458334"
   version="1.1"
   xmlns="http://www.w3.org/2000/svg">
  <g>
    <path style="fill:#F6730A"
       d="M 5.1518917,23.801606 C 4.0422221,23.658001 2.9956495,22.992185 2.3241258,22.002614 1.8192778,21.258659 1.5628706,20.206013 1.6713971,19.322918 1.7285785,18.857619 1.8952025,18.276773 2.0728307,17.923531 2.228266,17.614425 9.5337466,4.9586085 9.7351092,4.6496104 10.299997,3.7827669 11.175735,3.1450945 12.157973,2.885392 c 0.516455,-0.1365495 1.515459,-0.1360316 2.028273,0.00107 0.964312,0.2577774 1.812786,0.8534446 2.35253,1.6515823 0.225411,0.3333246 7.51113,12.9455637 7.73241,13.3855037 0.553616,1.100672 0.567578,2.387677 0.03817,3.517425 -0.224583,0.479246 -0.468061,0.832918 -0.810943,1.177966 -0.661725,0.665903 -1.437406,1.053904 -2.364808,1.182894 -0.422059,0.0587 -15.5279968,0.0585 -15.9817035,-2.22e-4 z m 15.7501913,-1.84493 c 1.4468,-0.202467 2.351801,-1.830222 1.741161,-3.13169 C 22.467518,18.450463 15.136931,5.759341 14.943292,5.4944029 14.618526,5.0500557 14.081353,4.7364441 13.487618,4.6445535 c -0.448776,-0.069456 -0.885481,0.00312 -1.316493,0.218726 -0.641669,0.3210142 -0.436142,-0.00114 -4.5993908,7.2098975 -2.0762105,3.596156 -3.8250631,6.647975 -3.8863394,6.78182 -0.4805931,1.049754 0.00646,2.374497 1.0645119,2.895544 0.1858957,0.09154 0.4504946,0.180406 0.6020821,0.2022 0.3857721,0.05546 15.1551732,0.05921 15.5500942,0.004 z"/>
    <path style="fill:#F6730A"
       d="m 11.906249,8.2604168 c 0,-1.8520831 2.645834,-1.8520831 2.645833,0 v 7.9375002 c 10e-7,1.852083 -2.645833,1.852083 -2.645833,0 z"/>
    <circle style="fill:#F6730A"
        cx="13.196093"
        cy="19.848112"
        r="1.2898433"/>
  </g>
</svg>
